<svg xmlns="http://www.w3.org/2000/svg" width="5.98in" height="4.21in" viewBox="0 0 538.2 378.9"><defs><clipPath id="a"><path d="M0 303.12h430.56V0H0v303.12z"/></clipPath><clipPath id="b"><path d="M-.152 303.12h430.866V-.048H-.152V303.12z"/></clipPath><clipPath id="c"><path d="M26.29 181.173h18.095v-12.976H26.29v12.976z"/></clipPath></defs><path fill="#fff" d="M0 0h538.2v378.9H0z"/><g font-weight="400" letter-spacing="0" word-spacing="0"><g style="line-height:125%;-inkscape-font-specification:'Deftone Stylus'" font-size="50" font-family="Deftone Stylus"><path d="M34.044 146.482l13.6-31.15q.4-1.05.4-1.55 0-1.25-1.85-1.25h-5.05q-1.35 0-1.35-1.6 0-1.65 1.55-1.65h28.35q-1.4 1.5-2.2 2.45-.8.9-1.3 1.6-.45.65-.75 1.25-.25.55-.55 1.35h-3.6q.4-1 .85-1.9.45-.9 1.05-1.5h-6.8v.25q.05.15.05.35-.05.7-.35 2.1-.25 1.4-1.3 3.8l-11.75 27.45h-9zM87.151 137.882q-.6 1.45-2.25 3-1.65 1.5-3.8 2.8-2.15 1.3-4.5 2.15-2.3.8-4.3.8-2.05 0-2.85-1.05-.75-1.05-.75-2.35 0-.55.1-1.1.1-.6.4-1.25 1.15-2.7 2.3-5 1.2-2.3 2.2-4.95.25-.65.3-.85.05-.2.05-.35 0-.65-.75-.65-1.3 0-1.85 1.25l-7.15 16.15h-8.3l16.6-37.2h8.3l-7.7 17.1q1.15-.65 2.15-.9 1-.3 1.95-.3 2.25 0 3.2.85 1 .85 1 2.45 0 1-.25 1.95-.2.95-.65 2.2-.45 1.2-1.15 2.8-.65 1.55-1.6 3.7-.15.45-.3.8-.1.35-.1.55 0 .75.9.75.7 0 1.8-.55t2.2-1.35q1.1-.8 2-1.7.9-.95 1.25-1.7l1.55 1.95z"/><path d="M93.104 135.332q1.1-.1 2.05-.6 1-.5 1.7-1.3t1.1-1.85q.4-1.05.4-2.25 0-.65-.95-.65-.6 0-1.1.4-.45.35-1 1.55l-2.2 4.7zm15.25 2.55q-.55 1.15-1.65 2.35-1.1 1.2-2.65 2.25-2.85 2.05-5.7 3.1-2.85 1.05-6.55 1.05-2 0-3.55-.15-1.5-.1-2.55-.55-1.05-.45-1.6-1.25-.55-.85-.55-2.25 0-2.05 1.55-5.6l1.85-4.15q.9-2.05 1.95-3.45 1.05-1.45 2.45-2.35 1.45-.9 3.3-1.3 1.9-.4 4.45-.4 1.95 0 3.2.25 1.3.2 2 .6.7.4.95 1 .3.6.3 1.35 0 1.25-.4 2.85-.35 1.6-1.5 3.1-.8 1.05-2.2 1.75-1.35.65-3 1.05t-3.35.6q-1.65.2-3.05.25-.6 1.3-.95 2.25-.3.9-.3 1.5 0 1.35 1.85 1.35 2.05 0 4.2-.55 2.15-.55 4.05-1.5 1.95-1 3.5-2.3 1.55-1.3 2.4-2.8l1.55 1.95z"/><path d="M129.895 137.882q-.65 1.45-2.35 3-1.65 1.55-3.85 2.85-2.15 1.25-4.55 2.1-2.35.8-4.35.8-1.8 0-2.7-.9-.9-.9-.9-2.5 0-.65.25-1.55.3-.95.7-1.95.45-1.05.95-2.1.55-1.1 1.05-2.05 1.05-1.95 1.35-2.75.3-.85.3-1.1 0-.35-.95-.75l-1.05-.45q-.65 1.75-1.65 3.4-.95 1.6-2.25 3.05-1.45 1.65-2.6 2.75-1.1 1.1-2 1.75-.9.65-1.65.95-.7.25-1.3.25l-.7-1.75q.55-.45 1.05-1.25 2.1-3.65 3.65-7.7 1.6-4.05 3-8.1l12.2 6.9q.75.45 1.05.95.35.5.35.95 0 .6-.45 1.6-.45.95-1.05 2.1-.55 1.1-1 2.25-.45 1.1-.45 1.9 0 .7.8.7.85 0 1.95-.5 1.15-.55 2.25-1.35 1.15-.8 2.05-1.7.9-.95 1.3-1.75l1.55 1.95z"/><path d="M135.877 135.332q1.1-.1 2.05-.6 1-.5 1.7-1.3t1.1-1.85q.4-1.05.4-2.25 0-.65-.95-.65-.6 0-1.1.4-.45.35-1 1.55l-2.2 4.7zm15.25 2.55q-.55 1.15-1.65 2.35-1.1 1.2-2.65 2.25-2.85 2.05-5.7 3.1-2.85 1.05-6.55 1.05-2 0-3.55-.15-1.5-.1-2.55-.55-1.05-.45-1.6-1.25-.55-.85-.55-2.25 0-2.05 1.55-5.6l1.85-4.15q.9-2.05 1.95-3.45 1.05-1.45 2.45-2.35 1.45-.9 3.3-1.3 1.9-.4 4.45-.4 1.95 0 3.2.25 1.3.2 2 .6.7.4.95 1 .3.6.3 1.35 0 1.25-.4 2.85-.35 1.6-1.5 3.1-.8 1.05-2.2 1.75-1.35.65-3 1.05t-3.35.6q-1.65.2-3.05.25-.6 1.3-.95 2.25-.3.9-.3 1.5 0 1.35 1.85 1.35 2.05 0 4.2-.55 2.15-.55 4.05-1.5 1.95-1 3.5-2.3 1.55-1.3 2.4-2.8l1.55 1.95zM177.187 137.882q-.65 1.45-2.35 3-1.65 1.55-3.85 2.85-2.15 1.25-4.55 2.1-2.35.8-4.35.8-1.6 0-2.65-.85-1-.9-1-2.4 0-1.2.65-2.5l7.45-16.7 6.3 3.45-5.3 11.95q-.25.6-.25.9 0 .75.85.75t2-.55q1.15-.55 2.25-1.35t2-1.7q.9-.95 1.25-1.7l1.55 1.95zm.8-20.8q0 .95-.65 1.75-.6.75-1.55 1.3-.9.5-2 .8-1.1.3-2.05.3-1.3 0-2.35-.55-1-.6-1-1.6 0-.8.55-1.55.55-.8 1.45-1.4.9-.6 2-.95t2.25-.35q1.3 0 2.3.6 1.05.6 1.05 1.65z"/><path d="M199.243 137.882q-1.1 1.95-2.95 3.55-1.85 1.6-4.15 2.8-2.25 1.15-4.8 1.8-2.55.6-5.05.6-1.5 0-2.8-.45-1.25-.45-2.2-1.25-.9-.8-1.45-1.8-.5-1-.5-2.15v-.55q-.35.4-1.05.85-.7.45-1.15.75-.25-.85-.25-1.3 0-.95.9-2.15.95-1.2 1.85-2.65.85-1.35 1.6-2.3.75-1 1.5-1.85.8-.85 1.65-1.6.85-.8 1.85-1.7-.05-.35-.1-.55v-.7q0-1.55.45-2.95.5-1.45 1.35-2.5.85-1.05 2-1.65 1.2-.65 2.6-.65 1.3 0 2.1.55.8.5.8 1.95 0 .45-.1 1t-.5 1.25q-.35.65-1.05 1.5-.7.85-1.85 1.9 4.05 5.1 4.05 7.9 0 2.55-1.25 4.4-1.2 1.85-3.85 2.85 1.3-.2 2.8-.75 1.55-.6 3.05-1.45 1.5-.9 2.8-2.05 1.3-1.2 2.15-2.6l1.55 1.95zm-15.8-5.85q-.8.55-1.8 1.45-.95.85-1.8 2.2-.85 1.3-1.15 2.3-.25 1-.25 1.9 0 .85.4 1.25.45.35 1.5.35.85 0 1.6-.45.75-.45 1.25-1.15.55-.7.85-1.55.3-.9.3-1.75 0-1.45-.25-2.65t-.65-1.9zm3.15-7q1.05-.7 1.3-1.2t.25-.9q0-.5-.45-.5-1.2 0-1.2 1.5v.55q.05.35.1.55zM236.082 137.882q-.65 1.5-2.35 3.05-1.7 1.55-3.9 2.85-2.15 1.25-4.55 2.05-2.35.8-4.3.8-1.75 0-2.7-.85-.95-.9-.95-2.35 0-.9.6-2.5.65-1.6 1.5-3.5.9-1.9 1.85-3.8.95-1.9 1.55-3.4.15-.45.2-.7.05-.25.05-.45 0-.6-.7-.6-.65 0-1.15.35-.5.3-.75.9l-7.4 16.75h-8.35l9.9-22.3 5.25 2.75q1.25-1.2 3.05-1.45 1.8-.3 3.5-.3 1.9 0 2.9 1 1.05 1 1.05 2.75 0 .95-.4 2.25-.4 1.25-1 2.65t-1.3 2.85q-.65 1.4-1.15 2.65-.35.7-.35 1.15 0 .75.9.75.8 0 1.95-.55t2.25-1.35q1.1-.8 2-1.7.9-.95 1.25-1.7l1.55 1.95z"/><path d="M246.58 131.532q-.5-.3-.75-.85-.2-.6-.2-1.25 0-.45.05-.7-.5.25-.9.75-.35.45-.8 1.55l-4.6 10.5q-.25.55-.25 1 0 .95.85.95.55 0 1.05-.35.55-.4.9-1.1l4.65-10.5zm4.9-2.25q.15-.25.25-.65.15-.4.15-.8 0-.5-.2-.8-.15-.35-.6-.35-1.2 0-1.2 1.15 0 1.45 1.6 1.45zm10.3.75q-2.75 2.9-8.6 3.5-1.7 4.35-3.3 6.95-1.6 2.6-3.35 3.95-1.7 1.35-3.65 1.8-1.95.4-4.25.4-3.65 0-5.1-1.05-1.45-1.1-1.45-2.95 0-1.8 1.25-4.45l2.3-5q1.05-2.25 2.15-3.8 1.15-1.55 2.35-2.45 1.25-.95 2.55-1.35 1.35-.4 2.8-.4.85 0 1.3.05.45 0 .75.1 1.8-1.65 4.45-1.65 1.7 0 2.5.7t.8 2q0 1.4-.9 3.35.5.1.85.2.4.05.75.05 1 0 2.1-.35 1.15-.4 2.4-1.35l1.3 1.75zM290.735 137.882q-.65 1.45-2.35 3-1.65 1.55-3.85 2.85-2.15 1.25-4.55 2.1-2.35.8-4.35.8-1.8 0-2.7-.9-.9-.9-.9-2.5 0-.65.25-1.55.3-.95.7-1.95.45-1.05.95-2.1.55-1.1 1.05-2.05 1.05-1.95 1.35-2.75.3-.85.3-1.1 0-.35-.95-.75l-1.05-.45q-.65 1.75-1.65 3.4-.95 1.6-2.25 3.05-1.45 1.65-2.6 2.75-1.1 1.1-2 1.75-.9.65-1.65.95-.7.25-1.3.25l-.7-1.75q.55-.45 1.05-1.25 2.1-3.65 3.65-7.7 1.6-4.05 3-8.1l12.2 6.9q.75.45 1.05.95.35.5.35.95 0 .6-.45 1.6-.45.95-1.05 2.1-.55 1.1-1 2.25-.45 1.1-.45 1.9 0 .7.8.7.85 0 1.95-.5 1.15-.55 2.25-1.35 1.15-.8 2.05-1.7.9-.95 1.3-1.75l1.55 1.95z"/><path d="M296.717 135.332q1.1-.1 2.05-.6 1-.5 1.7-1.3t1.1-1.85q.4-1.05.4-2.25 0-.65-.95-.65-.6 0-1.1.4-.45.35-1 1.55l-2.2 4.7zm15.25 2.55q-.55 1.15-1.65 2.35-1.1 1.2-2.65 2.25-2.85 2.05-5.7 3.1-2.85 1.05-6.55 1.05-2 0-3.55-.15-1.5-.1-2.55-.55-1.05-.45-1.6-1.25-.55-.85-.55-2.25 0-2.05 1.55-5.6l1.85-4.15q.9-2.05 1.95-3.45 1.05-1.45 2.45-2.35 1.45-.9 3.3-1.3 1.9-.4 4.45-.4 1.95 0 3.2.25 1.3.2 2 .6.7.4.95 1 .3.6.3 1.35 0 1.25-.4 2.85-.35 1.6-1.5 3.1-.8 1.05-2.2 1.75-1.35.65-3 1.05t-3.35.6q-1.65.2-3.05.25-.6 1.3-.95 2.25-.3.9-.3 1.5 0 1.35 1.85 1.35 2.05 0 4.2-.55 2.15-.55 4.05-1.5 1.95-1 3.5-2.3 1.55-1.3 2.4-2.8l1.55 1.95z"/><path d="M322.658 130.032q.1-.15.1-.3v-.35q0-.25-.2-.45-.15-.25-.65-.25-.75 0-1.2.4-.4.4-.75 1.25l-4.55 10.25q-.45.9-.45 1.7 0 .8.7.8 1.15 0 2.2-2.2l4.8-10.85zm13.3 7.85q-.75 1.55-2.45 3.15-1.7 1.55-3.85 2.8-2.15 1.25-4.5 2.05-2.35.75-4.3.75-.9 0-1.45-.5-.5-.55-.65-1.4-1.05.9-2.4 1.4-1.3.5-3.6.5-2.05 0-3.4-1-1.3-1.05-1.3-3.15 0-1.3.6-3.25t1.75-4.15q1.5-3 2.85-4.9 1.4-1.95 2.75-3.05 1.35-1.1 2.7-1.5 1.35-.45 2.8-.45 2.05 0 2.9.6.9.55 1.45 1.4l.5-1.15h5.95l-5.25 11.75q-.55 1.25-.8 1.8-.2.5-.2.9 0 .75.85.75t2-.55q1.15-.55 2.25-1.35t2-1.7q.9-.95 1.25-1.7l1.55 1.95z"/><path d="M358.032 137.882q-1.1 1.95-2.95 3.55-1.85 1.6-4.15 2.8-2.25 1.15-4.8 1.8-2.55.6-5.05.6-1.5 0-2.8-.45-1.25-.45-2.2-1.25-.9-.8-1.45-1.8-.5-1-.5-2.15v-.55q-.35.4-1.05.85-.7.45-1.15.75-.25-.85-.25-1.3 0-.95.9-2.15.95-1.2 1.85-2.65.85-1.35 1.6-2.3.75-1 1.5-1.85.8-.85 1.65-1.6.85-.8 1.85-1.7-.05-.35-.1-.55v-.7q0-1.55.45-2.95.5-1.45 1.35-2.5.85-1.05 2-1.65 1.2-.65 2.6-.65 1.3 0 2.1.55.8.5.8 1.95 0 .45-.1 1t-.5 1.25q-.35.65-1.05 1.5-.7.85-1.85 1.9 4.05 5.1 4.05 7.9 0 2.55-1.25 4.4-1.2 1.85-3.85 2.85 1.3-.2 2.8-.75 1.55-.6 3.05-1.45 1.5-.9 2.8-2.05 1.3-1.2 2.15-2.6l1.55 1.95zm-15.8-5.85q-.8.55-1.8 1.45-.95.85-1.8 2.2-.85 1.3-1.15 2.3-.25 1-.25 1.9 0 .85.4 1.25.45.35 1.5.35.85 0 1.6-.45.75-.45 1.25-1.15.55-.7.85-1.55.3-.9.3-1.75 0-1.45-.25-2.65t-.65-1.9zm3.15-7q1.05-.7 1.3-1.2t.25-.9q0-.5-.45-.5-1.2 0-1.2 1.5v.55q.05.35.1.55z"/><path d="M368.552 131.532q-.5-.3-.75-.85-.2-.6-.2-1.25 0-.45.05-.7-.5.25-.9.75-.35.45-.8 1.55l-4.6 10.5q-.25.55-.25 1 0 .95.85.95.55 0 1.05-.35.55-.4.9-1.1l4.65-10.5zm4.9-2.25q.15-.25.25-.65.15-.4.15-.8 0-.5-.2-.8-.15-.35-.6-.35-1.2 0-1.2 1.15 0 1.45 1.6 1.45zm10.3.75q-2.75 2.9-8.6 3.5-1.7 4.35-3.3 6.95-1.6 2.6-3.35 3.95-1.7 1.35-3.65 1.8-1.95.4-4.25.4-3.65 0-5.1-1.05-1.45-1.1-1.45-2.95 0-1.8 1.25-4.45l2.3-5q1.05-2.25 2.15-3.8 1.15-1.55 2.35-2.45 1.25-.95 2.55-1.35 1.35-.4 2.8-.4.85 0 1.3.05.45 0 .75.1 1.8-1.65 4.45-1.65 1.7 0 2.5.7t.8 2q0 1.4-.9 3.35.5.1.85.2.4.05.75.05 1 0 2.1-.35 1.15-.4 2.4-1.35l1.3 1.75z"/><path d="M404.539 137.882q-.65 1.5-2.35 3.05-1.7 1.55-3.9 2.85-2.15 1.25-4.55 2.05-2.35.8-4.3.8-1.75 0-2.7-.85-.95-.9-.95-2.35 0-.9.6-2.5.65-1.6 1.5-3.5.9-1.9 1.85-3.8.95-1.9 1.55-3.4.15-.45.2-.7.05-.25.05-.45 0-.6-.7-.6-.65 0-1.15.35-.5.3-.75.9l-7.4 16.75h-8.35l9.9-22.3 5.25 2.75q1.25-1.2 3.05-1.45 1.8-.3 3.5-.3 1.9 0 2.9 1 1.05 1 1.05 2.75 0 .95-.4 2.25-.4 1.25-1 2.65t-1.3 2.85q-.65 1.4-1.15 2.65-.35.7-.35 1.15 0 .75.9.75.8 0 1.95-.55t2.25-1.35q1.1-.8 2-1.7.9-.95 1.25-1.7l1.55 1.95zM63.331 208.332q.85-2.05.85-3.5 0-1.2-.75-1.45l-4.15 9.25q-.25.55-.3.8-.05.25-.05.35 0 .45.55.45 1.15 0 1.65-1.05l2.2-4.85zm14.1-31.55q.1-.2.1-.5 0-.6-.85-.6-.8 0-1.2.8l-8.8 19.7q.95-.35 2.1-1.55 1.15-1.25 2.15-3.35l6.5-14.5zm-12 36.8q-2.15 4.75-8.95 4.75-2.95 0-4.25-1.05-1.3-1-1.3-2.9 0-1.5.85-3.5l15-33.6q1.45-3.2 4.05-4.4 2.6-1.25 6.75-1.25 2.3 0 3.5.85 1.2.8 1.2 2.3 0 .95-.55 2.35l-6.35 14.15q-.6 1.35-1.5 2.7t-1.9 2.55q-1 1.15-2.05 2-1 .85-1.95 1.25.25 1.25 1 2t1.9.75q.5 0 1.25-.2.75-.25 1.55-.7.85-.5 1.65-1.25.8-.8 1.5-1.95l1.5 1.95q-1.3 2.65-3.7 4.1-2.4 1.45-4.95 1.45-.85 0-1.25-.05t-.7-.15q.15.3.15.8 0 .7-.25 1.7-.2.95-.75 2.15l-1.45 3.2z"/><path d="M120.815 200.382q-.65 1.45-2.35 3-1.65 1.55-3.85 2.85-2.15 1.25-4.55 2.1-2.35.8-4.35.8-1.8 0-2.7-.9-.9-.9-.9-2.5 0-.65.25-1.55.3-.95.7-1.95.45-1.05.95-2.1.55-1.1 1.05-2.05 1.05-1.95 1.35-2.75.3-.85.3-1.1 0-.2-.25-.3-.2-.15-.7-.45l-1.6-.95q-.95 1.95-2.4 2.85-1.4.9-3.65.9-.6 0-1.25-.05t-1.4-.2q-1.7 4.35-3.3 6.95-1.6 2.6-3.35 3.95-1.7 1.35-3.65 1.8-1.95.4-4.25.4-3.65 0-5.1-1.05-1.45-1.1-1.45-2.95 0-.95.3-2.05.35-1.1.95-2.4l2.3-5q1.05-2.25 2.15-3.8 1.15-1.55 2.35-2.45 1.25-.95 2.55-1.35 1.35-.4 2.8-.4.85 0 1.3.05.45 0 .75.1 1.8-1.65 4.45-1.65 1.7 0 2.5.7t.8 2q0 1.4-.9 3.35.25.05.45.1h.45q.8 0 1.5-.45.7-.5 1.3-1.25.6-.75 1.05-1.65.45-.95.85-1.85l10.2 6.15q.75.45 1.05 1 .35.5.35.9 0 .6-.45 1.6-.45.95-1.05 2.1-.55 1.1-1 2.25-.45 1.1-.45 1.9 0 .7.8.7.85 0 1.95-.5 1.15-.55 2.25-1.35 1.15-.8 2.05-1.7.9-.95 1.3-1.75l1.55 1.95zm-31.95-6.35q-.5-.3-.75-.85-.2-.6-.2-1.25 0-.45.05-.7-.6.25-.95.75-.3.45-.75 1.55l-4.6 10.5q-.25.55-.25 1 0 .95.85.95.5 0 1.05-.35.6-.4.9-1.1l4.65-10.5zm4.9-2.25q.15-.25.25-.65.15-.4.15-.8 0-.5-.2-.8-.15-.35-.6-.35-1.2 0-1.2 1.15 0 1.45 1.6 1.45zM156.814 200.382q-.55 1.2-1.8 2.5t-2.8 2.35q-1.55 1.05-3.15 1.75-1.6.7-2.75.7-.8 0-1.5-.4l-2.05 4.75q-2.65 6.3-10.8 6.3-5.65 0-5.65-3.65 0-1.35.6-2.55.6-1.2 1.6-2.2 1.05-.95 2.4-1.65 1.35-.75 2.85-1.1-3.7-.7-3.7-4.6 0-1 .3-2.35.35-1.35.95-2.65l4.85-10.9 5.9 3.45-4.75 10.7q-.4.9-.4 1.5 0 .7.6.7 1.3 0 2-1.5l7.05-15.8 5.9 4.4-4.95 11.05q-.55 1.1-.55 1.8 0 .75.85.75.8 0 1.9-.55 1.15-.55 2.25-1.35 1.15-.8 2.05-1.7.9-.95 1.3-1.7l1.5 1.95zm-20.35 7.2q-1.25.85-2.1 1.5-.8.7-1.35 1.7-.7 1.25-.95 1.85-.25.6-.25.95 0 .65.85.65.8 0 1.25-.85.55-.95 1.15-2.35.6-1.4 1.4-3.45z"/><path d="M167.38 194.032q-.5-.3-.75-.85-.2-.6-.2-1.25 0-.45.05-.7-.5.25-.9.75-.35.45-.8 1.55l-4.6 10.5q-.25.55-.25 1 0 .95.85.95.55 0 1.05-.35.55-.4.9-1.1l4.65-10.5zm4.9-2.25q.15-.25.25-.65.15-.4.15-.8 0-.5-.2-.8-.15-.35-.6-.35-1.2 0-1.2 1.15 0 1.45 1.6 1.45zm10.3.75q-2.75 2.9-8.6 3.5-1.7 4.35-3.3 6.95-1.6 2.6-3.35 3.95-1.7 1.35-3.65 1.8-1.95.4-4.25.4-3.65 0-5.1-1.05-1.45-1.1-1.45-2.95 0-1.8 1.25-4.45l2.3-5q1.05-2.25 2.15-3.8 1.15-1.55 2.35-2.45 1.25-.95 2.55-1.35 1.35-.4 2.8-.4.85 0 1.3.05.45 0 .75.1 1.8-1.65 4.45-1.65 1.7 0 2.5.7t.8 2q0 1.4-.9 3.35.5.1.85.2.4.05.75.05 1 0 2.1-.35 1.15-.4 2.4-1.35l1.3 1.75z"/><path d="M202.517 200.382q-.6 1.35-2.25 2.9-1.6 1.55-3.65 2.85t-4.2 2.15q-2.15.85-3.8.85-1.45 0-2.2-.6-.75-.6-1-1.3-.85.7-2.55 1.3-1.65.6-3.95.6-2.3 0-3.4-1-1.05-1-1.05-2.8 0-2.05 1.25-4.85l5.3-11.95h7.5l-6.5 14.55q-.4.95-.4 1.7 0 .8.7.8 1.1 0 2.1-2.2l7.4-16.7 6.35 3.45-5.3 11.95q-.2.4-.2.9 0 .75.9.75.8 0 1.9-.55 1.15-.55 2.25-1.35t2-1.7q.9-.95 1.3-1.7l1.5 1.95zM228.702 200.382q-.65 1.5-2.35 3.05-1.65 1.55-3.8 2.85-2.15 1.25-4.5 2.05-2.35.8-4.35.8-1.7 0-2.7-1.05-.95-1.05-.95-2.5 0-.45.1-1.05.15-.65.45-1.25l5.4-12.15h-2.15l1.25-2.8h2.1l6.95-15.45 8.5-.55-7.1 16h2.25l-1.25 2.8h-2.25l-5.2 11.6q-.25.5-.25.8 0 .4.5.4.9 0 2.05-.55 1.2-.55 2.35-1.35 1.15-.85 2.1-1.8.95-1 1.35-1.8l1.5 1.95z"/><path d="M239.255 194.032q-.5-.3-.75-.85-.2-.6-.2-1.25 0-.45.05-.7-.5.25-.9.75-.35.45-.8 1.55l-4.6 10.5q-.25.55-.25 1 0 .95.85.95.55 0 1.05-.35.55-.4.9-1.1l4.65-10.5zm4.9-2.25q.15-.25.25-.65.15-.4.15-.8 0-.5-.2-.8-.15-.35-.6-.35-1.2 0-1.2 1.15 0 1.45 1.6 1.45zm10.3.75q-2.75 2.9-8.6 3.5-1.7 4.35-3.3 6.95-1.6 2.6-3.35 3.95-1.7 1.35-3.65 1.8-1.95.4-4.25.4-3.65 0-5.1-1.05-1.45-1.1-1.45-2.95 0-1.8 1.25-4.45l2.3-5q1.05-2.25 2.15-3.8 1.15-1.55 2.35-2.45 1.25-.95 2.55-1.35 1.35-.4 2.8-.4.85 0 1.3.05.45 0 .75.1 1.8-1.65 4.45-1.65 1.7 0 2.5.7t.8 2q0 1.4-.9 3.35.5.1.85.2.4.05.75.05 1 0 2.1-.35 1.15-.4 2.4-1.35l1.3 1.75zM273.66 192.182q.05-.15.05-.35 0-.65-1-.65-.65 0-1 .25t-.6.8l-5.05 11.15q-.25.45-.3.85-.05.4-.05.7 0 .8.65.8 1.1 0 2.25-2.35l5.05-11.2zm11.4 8.2q-.85 1.6-1.9 2.65-1.05 1-2.15 1.6-1.05.55-2.1.8-1 .2-1.8.2-1.15 0-1.9-.35t-1.05-.85q-.85 1-2.05 1.85-1.15.85-2.5 1.5t-2.8 1q-1.4.35-2.7.35-6.05 0-6.05-4.7 0-1.75.95-3.8l12.85-28.85h8.3l-7.55 17.1q.8-.7 1.55-.95.8-.25 1.9-.25 2.15 0 2.95 1.25.85 1.2.85 2.95 0 1.1-.65 3.05-.65 1.95-1.9 4.8-.2.4-.2.9 0 .95 1.25.95 1.5 0 2.8-.75 1.35-.8 2.35-2.4l1.55 1.95z"/><path d="M291.053 197.832q1.1-.1 2.05-.6 1-.5 1.7-1.3t1.1-1.85q.4-1.05.4-2.25 0-.65-.95-.65-.6 0-1.1.4-.45.35-1 1.55l-2.2 4.7zm15.25 2.55q-.55 1.15-1.65 2.35-1.1 1.2-2.65 2.25-2.85 2.05-5.7 3.1-2.85 1.05-6.55 1.05-2 0-3.55-.15-1.5-.1-2.55-.55-1.05-.45-1.6-1.25-.55-.85-.55-2.25 0-2.05 1.55-5.6l1.85-4.15q.9-2.05 1.95-3.45 1.05-1.45 2.45-2.35 1.45-.9 3.3-1.3 1.9-.4 4.45-.4 1.95 0 3.2.25 1.3.2 2 .6.7.4.95 1 .3.6.3 1.35 0 1.25-.4 2.85-.35 1.6-1.5 3.1-.8 1.05-2.2 1.75-1.35.65-3 1.05t-3.35.6q-1.65.2-3.05.25-.6 1.3-.95 2.25-.3.9-.3 1.5 0 1.35 1.85 1.35 2.05 0 4.2-.55 2.15-.55 4.05-1.5 1.95-1 3.5-2.3 1.55-1.3 2.4-2.8l1.55 1.95zM332.413 200.382q-.65 1.5-2.35 3.05-1.65 1.55-3.8 2.85-2.15 1.25-4.5 2.05-2.35.8-4.35.8-1.7 0-2.7-1.05-.95-1.05-.95-2.5 0-.45.1-1.05.15-.65.45-1.25l5.4-12.15h-2.15l1.25-2.8h2.1l6.95-15.45 8.5-.55-7.1 16h2.25l-1.25 2.8h-2.25l-5.2 11.6q-.25.5-.25.8 0 .4.5.4.9 0 2.05-.55 1.2-.55 2.35-1.35 1.15-.85 2.1-1.8.95-1 1.35-1.8l1.5 1.95z"/><path d="M357.366 200.382q-.6 1.45-2.25 3-1.65 1.5-3.8 2.8-2.15 1.3-4.5 2.15-2.3.8-4.3.8-2.05 0-2.85-1.05-.75-1.05-.75-2.35 0-.55.1-1.1.1-.6.4-1.25 1.15-2.7 2.3-5 1.2-2.3 2.2-4.95.25-.65.3-.85.05-.2.05-.35 0-.65-.75-.65-1.3 0-1.85 1.25l-7.15 16.15h-8.3l16.6-37.2h8.3l-7.7 17.1q1.15-.65 2.15-.9 1-.3 1.95-.3 2.25 0 3.2.85 1 .85 1 2.45 0 1-.25 1.95-.2.95-.65 2.2-.45 1.2-1.15 2.8-.65 1.55-1.6 3.7-.15.45-.3.8-.1.35-.1.55 0 .75.9.75.7 0 1.8-.55t2.2-1.35q1.1-.8 2-1.7.9-.95 1.25-1.7l1.55 1.95z"/><path d="M371.719 200.382q-.65 1.45-2.35 3-1.65 1.55-3.85 2.85-2.15 1.25-4.55 2.1-2.35.8-4.35.8-1.6 0-2.65-.85-1-.9-1-2.4 0-1.2.65-2.5l7.45-16.7 6.3 3.45-5.3 11.95q-.25.6-.25.9 0 .75.85.75t2-.55q1.15-.55 2.25-1.35t2-1.7q.9-.95 1.25-1.7l1.55 1.95zm.8-20.8q0 .95-.65 1.75-.6.75-1.55 1.3-.9.5-2 .8-1.1.3-2.05.3-1.3 0-2.35-.55-1-.6-1-1.6 0-.8.55-1.55.55-.8 1.45-1.4.9-.6 2-.95t2.25-.35q1.3 0 2.3.6 1.05.6 1.05 1.65z"/><path d="M393.774 200.382q-1.1 1.95-2.95 3.55-1.85 1.6-4.15 2.8-2.25 1.15-4.8 1.8-2.55.6-5.05.6-1.5 0-2.8-.45-1.25-.45-2.2-1.25-.9-.8-1.45-1.8-.5-1-.5-2.15v-.55q-.35.4-1.05.85-.7.45-1.15.75-.25-.85-.25-1.3 0-.95.9-2.15.95-1.2 1.85-2.65.85-1.35 1.6-2.3.75-1 1.5-1.85.8-.85 1.65-1.6.85-.8 1.85-1.7-.05-.35-.1-.55v-.7q0-1.55.45-2.95.5-1.45 1.35-2.5.85-1.05 2-1.65 1.2-.65 2.6-.65 1.3 0 2.1.55.8.5.8 1.95 0 .45-.1 1t-.5 1.25q-.35.65-1.05 1.5-.7.85-1.85 1.9 4.05 5.1 4.05 7.9 0 2.55-1.25 4.4-1.2 1.85-3.85 2.85 1.3-.2 2.8-.75 1.55-.6 3.05-1.45 1.5-.9 2.8-2.05 1.3-1.2 2.15-2.6l1.55 1.95zm-15.8-5.85q-.8.55-1.8 1.45-.95.85-1.8 2.2-.85 1.3-1.15 2.3-.25 1-.25 1.9 0 .85.4 1.25.45.35 1.5.35.85 0 1.6-.45.75-.45 1.25-1.15.55-.7.85-1.55.3-.9.3-1.75 0-1.45-.25-2.65t-.65-1.9zm3.15-7q1.05-.7 1.3-1.2t.25-.9q0-.5-.45-.5-1.2 0-1.2 1.5v.55q.05.35.1.55zM429.763 200.382q-.6 1.35-2.25 2.9-1.6 1.55-3.65 2.85t-4.2 2.15q-2.15.85-3.8.85-1.45 0-2.2-.6-.75-.6-1-1.3-.85.7-2.55 1.3-1.65.6-3.95.6-2.3 0-3.4-1-1.05-1-1.05-2.8 0-2.05 1.25-4.85l5.3-11.95h7.5l-6.5 14.55q-.4.95-.4 1.7 0 .8.7.8 1.1 0 2.1-2.2l7.4-16.7 6.35 3.45-5.3 11.95q-.2.4-.2.9 0 .75.9.75.8 0 1.9-.55 1.15-.55 2.25-1.35t2-1.7q.9-.95 1.3-1.7l1.5 1.95z"/><path d="M441.63 192.882q.2-.4.2-.9 0-.8-.85-.8-1.15 0-1.6 1.05l-5.3 11.65q-.15.3-.2.55-.05.25-.05.4 0 .9.8.9 1.1 0 2.25-2.35l4.75-10.5zm11.15 7.5q-.25.6-.9 1.5t-1.7 1.75q-1 .8-2.35 1.4-1.3.6-2.95.6-.8 0-1.45-.35-.65-.35-1-.85-2.05 2.65-4 3.7-1.95 1-3.95 1-1 0-1.65-.25-.65-.25-.85-.5l-4.35 9.8h-8.2l13.2-29.65h5.9l-.75 1.75q1.1-1.2 2.45-1.9t3.75-.7q2 0 3.05 1 1.05.95 1.05 2.6 0 1.55-.65 3.6-.6 2-1.9 4.85-.15.45-.15.9 0 .95 1.25.95t2.5-.8q1.3-.8 2.15-2.35l1.5 1.95z"/><path d="M474.926 200.382q-1.1 1.95-2.95 3.55-1.85 1.6-4.15 2.8-2.25 1.15-4.8 1.8-2.55.6-5.05.6-1.5 0-2.8-.45-1.25-.45-2.2-1.25-.9-.8-1.45-1.8-.5-1-.5-2.15v-.55q-.35.4-1.05.85-.7.45-1.15.75-.25-.85-.25-1.3 0-.95.9-2.15.95-1.2 1.85-2.65.85-1.35 1.6-2.3.75-1 1.5-1.85.8-.85 1.65-1.6.85-.8 1.85-1.7-.05-.35-.1-.55v-.7q0-1.55.45-2.95.5-1.45 1.35-2.5.85-1.05 2-1.65 1.2-.65 2.6-.65 1.3 0 2.1.55.8.5.8 1.95 0 .45-.1 1t-.5 1.25q-.35.65-1.05 1.5-.7.85-1.85 1.9 4.05 5.1 4.05 7.9 0 2.55-1.25 4.4-1.2 1.85-3.85 2.85 1.3-.2 2.8-.75 1.55-.6 3.05-1.45 1.5-.9 2.8-2.05 1.3-1.2 2.15-2.6l1.55 1.95zm-15.8-5.85q-.8.55-1.8 1.45-.95.85-1.8 2.2-.85 1.3-1.15 2.3-.25 1-.25 1.9 0 .85.4 1.25.45.35 1.5.35.85 0 1.6-.45.75-.45 1.25-1.15.55-.7.85-1.55.3-.9.3-1.75 0-1.45-.25-2.65t-.65-1.9zm3.15-7q1.05-.7 1.3-1.2t.25-.9q0-.5-.45-.5-1.2 0-1.2 1.5v.55q.05.35.1.55z"/><path d="M480.897 197.832q1.1-.1 2.05-.6 1-.5 1.7-1.3t1.1-1.85q.4-1.05.4-2.25 0-.65-.95-.65-.6 0-1.1.4-.45.35-1 1.55l-2.2 4.7zm15.25 2.55q-.55 1.15-1.65 2.35-1.1 1.2-2.65 2.25-2.85 2.05-5.7 3.1-2.85 1.05-6.55 1.05-2 0-3.55-.15-1.5-.1-2.55-.55-1.05-.45-1.6-1.25-.55-.85-.55-2.25 0-2.05 1.55-5.6l1.85-4.15q.9-2.05 1.95-3.45 1.05-1.45 2.45-2.35 1.45-.9 3.3-1.3 1.9-.4 4.45-.4 1.95 0 3.2.25 1.3.2 2 .6.7.4.95 1 .3.6.3 1.35 0 1.25-.4 2.85-.35 1.6-1.5 3.1-.8 1.05-2.2 1.75-1.35.65-3 1.05t-3.35.6q-1.65.2-3.05.25-.6 1.3-.95 2.25-.3.9-.3 1.5 0 1.35 1.85 1.35 2.05 0 4.2-.55 2.15-.55 4.05-1.5 1.95-1 3.5-2.3 1.55-1.3 2.4-2.8l1.55 1.95z"/><path d="M510.538 200.382q-.65 1.5-2.35 3.05-1.65 1.55-3.8 2.85-2.15 1.25-4.5 2.05-2.35.8-4.35.8-1.7 0-2.7-1.05-.95-1.05-.95-2.5 0-.45.1-1.05.15-.65.45-1.25l5.4-12.15h-2.15l1.25-2.8h2.1l6.95-15.45 8.5-.55-7.1 16h2.25l-1.25 2.8h-2.25l-5.2 11.6q-.25.5-.25.8 0 .4.5.4.9 0 2.05-.55 1.2-.55 2.35-1.35 1.15-.85 2.1-1.8.95-1 1.35-1.8l1.5 1.95z"/></g><text style="line-height:125%" x="516.171" y="203.097" font-size="40" font-family="sans-serif"/></g></svg>